<svg xmlns="http://www.w3.org/2000/svg" version="1.1" xmlns:xlink="http://www.w3.org/1999/xlink" xmlns:svgjs="http://svgjs.com/svgjs" width="560" height="1440" preserveAspectRatio="none" viewBox="0 0 560 1440"><g mask="url(&quot;#SvgjsMask1032&quot;)" fill="none"><path d="M277.32 529.9 a34.84 34.84 0 1 0 69.68 0 a34.84 34.84 0 1 0 -69.68 0z" stroke="rgba(49, 104, 156, 1)"></path><path d="M197.02 964.29 a30.1 30.1 0 1 0 60.2 0 a30.1 30.1 0 1 0 -60.2 0z" fill="rgba(49, 104, 156, 1)"></path><path d="M198.46 237.64a27.67 27.67 0 1 0 27.06-48.28z" stroke="rgba(49, 104, 156, 1)"></path><path d="M146.69 608.5L158.16 608.5L158.16 619.97L146.69 619.97z" fill="rgba(49, 104, 156, 1)"></path><path d="M9.72 1207.02 a50.68 50.68 0 1 0 101.36 0 a50.68 50.68 0 1 0 -101.36 0z" fill="rgba(49, 104, 156, 1)"></path><path d="M198.97 809.14L244.57 809.14L244.57 854.74L198.97 854.74z" fill="rgba(49, 104, 156, 1)"></path><path d="M331.95 129.8L383.17 129.8L383.17 181.02L331.95 181.02z" fill="rgba(49, 104, 156, 1)"></path><path d="M356.95 27.78L375.37 27.78L375.37 46.2L356.95 46.2z" stroke="rgba(49, 104, 156, 1)"></path><path d="M393.28 1119.05 a8.07 8.07 0 1 0 16.14 0 a8.07 8.07 0 1 0 -16.14 0z" fill="rgba(49, 104, 156, 1)"></path><path d="M505.66 857.56a14.83 14.83 0 1 0-23.43 18.18z" fill="rgba(49, 104, 156, 1)"></path><path d="M414.9 1294.54L439.88 1294.54L439.88 1334.44L414.9 1334.44z" stroke="rgba(49, 104, 156, 1)"></path><path d="M525.07 830.91L575.02 830.91L575.02 880.86L525.07 880.86z" stroke="rgba(49, 104, 156, 1)"></path><path d="M514.53 1185.55L569.44 1185.55L569.44 1228.32L514.53 1228.32z" fill="rgba(49, 104, 156, 1)"></path><path d="M329.24 826.51L348.1 826.51L348.1 865.56L329.24 865.56z" fill="rgba(49, 104, 156, 1)"></path><path d="M514.06 282.78a15.79 15.79 0 1 0 30.22-9.16z" stroke="rgba(49, 104, 156, 1)"></path><path d="M439.97 889.73L444.9 889.73L444.9 914.74L439.97 914.74z" fill="rgba(49, 104, 156, 1)"></path><path d="M171.42 498.65a39.77 39.77 0 1 0-48.72-62.88z" fill="rgba(49, 104, 156, 1)"></path><path d="M208.16 1109.44L242.19 1109.44L242.19 1143.47L208.16 1143.47z" stroke="rgba(49, 104, 156, 1)"></path><path d="M511.57 1137.3L519.72 1137.3L519.72 1145.45L511.57 1145.45z" stroke="rgba(49, 104, 156, 1)"></path><path d="M542.48 113.72L576.42 113.72L576.42 147.66L542.48 147.66z" stroke="rgba(49, 104, 156, 1)"></path><path d="M338.44 599.49 a30.32 30.32 0 1 0 60.64 0 a30.32 30.32 0 1 0 -60.64 0z" stroke="rgba(49, 104, 156, 1)"></path><path d="M383.14 1114.13L409.22 1114.13L409.22 1140.21L383.14 1140.21z" fill="rgba(49, 104, 156, 1)"></path><path d="M526.34 1353.17a10.33 10.33 0 1 0-19.13 7.79z" fill="rgba(49, 104, 156, 1)"></path><path d="M241.97 659.08L247.16 659.08L247.16 697.13L241.97 697.13z" stroke="rgba(49, 104, 156, 1)"></path><path d="M240.6 316.15a47.66 47.66 0 1 0 78.54 54.02z" stroke="rgba(49, 104, 156, 1)"></path><path d="M6.28 324.82 a1.08 1.08 0 1 0 2.16 0 a1.08 1.08 0 1 0 -2.16 0z" fill="rgba(49, 104, 156, 1)"></path><path d="M14.14 407.9L36.19 407.9L36.19 429.95L14.14 429.95z" stroke="rgba(49, 104, 156, 1)"></path><path d="M519.13 1361.27L548.62 1361.27L548.62 1412.28L519.13 1412.28z" fill="rgba(49, 104, 156, 1)"></path><path d="M530.96 112.72a12.07 12.07 0 1 0-8.45 22.61z" stroke="rgba(49, 104, 156, 1)"></path><path d="M321.81 828.43 a39.18 39.18 0 1 0 78.36 0 a39.18 39.18 0 1 0 -78.36 0z" fill="rgba(49, 104, 156, 1)"></path><path d="M206.92 495.11a52.74 52.74 0 1 0 95.39 45.02z" fill="rgba(49, 104, 156, 1)"></path><path d="M396.22 849.56L425.81 849.56L425.81 879.15L396.22 879.15z" fill="rgba(49, 104, 156, 1)"></path><path d="M161.66 1292.96L175.78 1292.96L175.78 1307.08L161.66 1307.08z" fill="rgba(49, 104, 156, 1)"></path></g><defs><mask id="SvgjsMask1032"><rect width="560" height="1440" fill="#ffffff"></rect></mask></defs></svg>