<svg xmlns="http://www.w3.org/2000/svg" version="1.1" xmlns:xlink="http://www.w3.org/1999/xlink" xmlns:svgjs="http://svgjs.com/svgjs" width="1440" height="560" preserveAspectRatio="none" viewBox="0 0 1440 560"><g mask="url(&quot;#SvgjsMask1037&quot;)" fill="none"><path d="M-80.78 684.25L-80.78 684.25" stroke="rgba(49, 104, 156, 1)" stroke-width="1.5"></path><path d="M-80.78 684.25L74.93 684.18" stroke="rgba(49, 104, 156, 1)" stroke-width="1.5"></path><path d="M-80.78 684.25L56.14 498.48" stroke="rgba(49, 104, 156, 1)" stroke-width="1.5"></path><path d="M-80.78 684.25L221.23 657.54" stroke="rgba(49, 104, 156, 1)" stroke-width="1.5"></path><path d="M-80.78 684.25L262.15 562.06" stroke="rgba(49, 104, 156, 1)" stroke-width="1.5"></path><path d="M108.64 338.41L108.64 338.41" stroke="rgba(49, 104, 156, 1)" stroke-width="1.5"></path><path d="M108.64 338.41L210.99 392.53" stroke="rgba(49, 104, 156, 1)" stroke-width="1.5"></path><path d="M108.64 338.41L56.14 498.48" stroke="rgba(49, 104, 156, 1)" stroke-width="1.5"></path><path d="M108.64 338.41L262.15 562.06" stroke="rgba(49, 104, 156, 1)" stroke-width="1.5"></path><path d="M108.64 338.41L381.71 370.76" stroke="rgba(49, 104, 156, 1)" stroke-width="1.5"></path><path d="M108.64 338.41L221.23 657.54" stroke="rgba(49, 104, 156, 1)" stroke-width="1.5"></path><path d="M108.64 338.41L385.07 543.47" stroke="rgba(49, 104, 156, 1)" stroke-width="1.5"></path><path d="M56.14 498.48L56.14 498.48" stroke="rgba(49, 104, 156, 1)" stroke-width="1.5"></path><path d="M56.14 498.48L74.93 684.18" stroke="rgba(49, 104, 156, 1)" stroke-width="1.5"></path><path d="M56.14 498.48L210.99 392.53" stroke="rgba(49, 104, 156, 1)" stroke-width="1.5"></path><path d="M56.14 498.48L262.15 562.06" stroke="rgba(49, 104, 156, 1)" stroke-width="1.5"></path><path d="M56.14 498.48L221.23 657.54" stroke="rgba(49, 104, 156, 1)" stroke-width="1.5"></path><path d="M74.93 684.18L74.93 684.18" stroke="rgba(49, 104, 156, 1)" stroke-width="1.5"></path><path d="M74.93 684.18L221.23 657.54" stroke="rgba(49, 104, 156, 1)" stroke-width="1.5"></path><path d="M74.93 684.18L262.15 562.06" stroke="rgba(49, 104, 156, 1)" stroke-width="1.5"></path><path d="M74.93 684.18L352.22 673.52" stroke="rgba(49, 104, 156, 1)" stroke-width="1.5"></path><path d="M210.99 392.53L210.99 392.53" stroke="rgba(49, 104, 156, 1)" stroke-width="1.5"></path><path d="M210.99 392.53L381.71 370.76" stroke="rgba(49, 104, 156, 1)" stroke-width="1.5"></path><path d="M262.15 562.06L262.15 562.06" stroke="rgba(49, 104, 156, 1)" stroke-width="1.5"></path><path d="M262.15 562.06L221.23 657.54" stroke="rgba(49, 104, 156, 1)" stroke-width="1.5"></path><path d="M262.15 562.06L385.07 543.47" stroke="rgba(49, 104, 156, 1)" stroke-width="1.5"></path><path d="M221.23 657.54L221.23 657.54" stroke="rgba(49, 104, 156, 1)" stroke-width="1.5"></path><path d="M221.23 657.54L352.22 673.52" stroke="rgba(49, 104, 156, 1)" stroke-width="1.5"></path><path d="M221.23 657.54L385.07 543.47" stroke="rgba(49, 104, 156, 1)" stroke-width="1.5"></path><path d="M221.23 657.54L210.99 392.53" stroke="rgba(49, 104, 156, 1)" stroke-width="1.5"></path><path d="M381.71 370.76L381.71 370.76" stroke="rgba(49, 104, 156, 1)" stroke-width="1.5"></path><path d="M381.71 370.76L531.34 400.86" stroke="rgba(49, 104, 156, 1)" stroke-width="1.5"></path><path d="M381.71 370.76L385.07 543.47" stroke="rgba(49, 104, 156, 1)" stroke-width="1.5"></path><path d="M381.71 370.76L515.82 517" stroke="rgba(49, 104, 156, 1)" stroke-width="1.5"></path><path d="M381.71 370.76L262.15 562.06" stroke="rgba(49, 104, 156, 1)" stroke-width="1.5"></path><path d="M385.07 543.47L385.07 543.47" stroke="rgba(49, 104, 156, 1)" stroke-width="1.5"></path><path d="M385.07 543.47L515.82 517" stroke="rgba(49, 104, 156, 1)" stroke-width="1.5"></path><path d="M385.07 543.47L352.22 673.52" stroke="rgba(49, 104, 156, 1)" stroke-width="1.5"></path><path d="M352.22 673.52L352.22 673.52" stroke="rgba(49, 104, 156, 1)" stroke-width="1.5"></path><path d="M352.22 673.52L262.15 562.06" stroke="rgba(49, 104, 156, 1)" stroke-width="1.5"></path><path d="M352.22 673.52L560.9 646.58" stroke="rgba(49, 104, 156, 1)" stroke-width="1.5"></path><path d="M352.22 673.52L515.82 517" stroke="rgba(49, 104, 156, 1)" stroke-width="1.5"></path><path d="M531.34 400.86L531.34 400.86" stroke="rgba(49, 104, 156, 1)" stroke-width="1.5"></path><path d="M531.34 400.86L515.82 517" stroke="rgba(49, 104, 156, 1)" stroke-width="1.5"></path><path d="M515.82 517L515.82 517" stroke="rgba(49, 104, 156, 1)" stroke-width="1.5"></path><path d="M515.82 517L560.9 646.58" stroke="rgba(49, 104, 156, 1)" stroke-width="1.5"></path><path d="M515.82 517L675.46 523.39" stroke="rgba(49, 104, 156, 1)" stroke-width="1.5"></path><path d="M560.9 646.58L560.9 646.58" stroke="rgba(49, 104, 156, 1)" stroke-width="1.5"></path><path d="M560.9 646.58L663.4 683.7" stroke="rgba(49, 104, 156, 1)" stroke-width="1.5"></path><path d="M560.9 646.58L675.46 523.39" stroke="rgba(49, 104, 156, 1)" stroke-width="1.5"></path><path d="M560.9 646.58L385.07 543.47" stroke="rgba(49, 104, 156, 1)" stroke-width="1.5"></path><path d="M710.5 258.5L710.5 258.5" stroke="rgba(49, 104, 156, 1)" stroke-width="1.5"></path><path d="M710.5 258.5L688.81 395.95" stroke="rgba(49, 104, 156, 1)" stroke-width="1.5"></path><path d="M710.5 258.5L844.73 213.3" stroke="rgba(49, 104, 156, 1)" stroke-width="1.5"></path><path d="M710.5 258.5L531.34 400.86" stroke="rgba(49, 104, 156, 1)" stroke-width="1.5"></path><path d="M688.81 395.95L688.81 395.95" stroke="rgba(49, 104, 156, 1)" stroke-width="1.5"></path><path d="M688.81 395.95L675.46 523.39" stroke="rgba(49, 104, 156, 1)" stroke-width="1.5"></path><path d="M688.81 395.95L531.34 400.86" stroke="rgba(49, 104, 156, 1)" stroke-width="1.5"></path><path d="M688.81 395.95L791.07 535.72" stroke="rgba(49, 104, 156, 1)" stroke-width="1.5"></path><path d="M688.81 395.95L515.82 517" stroke="rgba(49, 104, 156, 1)" stroke-width="1.5"></path><path d="M675.46 523.39L675.46 523.39" stroke="rgba(49, 104, 156, 1)" stroke-width="1.5"></path><path d="M675.46 523.39L791.07 535.72" stroke="rgba(49, 104, 156, 1)" stroke-width="1.5"></path><path d="M675.46 523.39L663.4 683.7" stroke="rgba(49, 104, 156, 1)" stroke-width="1.5"></path><path d="M675.46 523.39L531.34 400.86" stroke="rgba(49, 104, 156, 1)" stroke-width="1.5"></path><path d="M663.4 683.7L663.4 683.7" stroke="rgba(49, 104, 156, 1)" stroke-width="1.5"></path><path d="M663.4 683.7L791.32 706.92" stroke="rgba(49, 104, 156, 1)" stroke-width="1.5"></path><path d="M663.4 683.7L791.07 535.72" stroke="rgba(49, 104, 156, 1)" stroke-width="1.5"></path><path d="M663.4 683.7L515.82 517" stroke="rgba(49, 104, 156, 1)" stroke-width="1.5"></path><path d="M844.73 213.3L844.73 213.3" stroke="rgba(49, 104, 156, 1)" stroke-width="1.5"></path><path d="M844.73 213.3L947.34 205.3" stroke="rgba(49, 104, 156, 1)" stroke-width="1.5"></path><path d="M844.73 213.3L952.23 355.52" stroke="rgba(49, 104, 156, 1)" stroke-width="1.5"></path><path d="M844.73 213.3L1007.5 38.27" stroke="rgba(49, 104, 156, 1)" stroke-width="1.5"></path><path d="M791.07 535.72L791.07 535.72" stroke="rgba(49, 104, 156, 1)" stroke-width="1.5"></path><path d="M791.07 535.72L956.59 517.61" stroke="rgba(49, 104, 156, 1)" stroke-width="1.5"></path><path d="M791.32 706.92L791.32 706.92" stroke="rgba(49, 104, 156, 1)" stroke-width="1.5"></path><path d="M791.32 706.92L791.07 535.72" stroke="rgba(49, 104, 156, 1)" stroke-width="1.5"></path><path d="M791.32 706.92L675.46 523.39" stroke="rgba(49, 104, 156, 1)" stroke-width="1.5"></path><path d="M791.32 706.92L1011.94 702.44" stroke="rgba(49, 104, 156, 1)" stroke-width="1.5"></path><path d="M953.95 -110.28L953.95 -110.28" stroke="rgba(49, 104, 156, 1)" stroke-width="1.5"></path><path d="M953.95 -110.28L1007.5 38.27" stroke="rgba(49, 104, 156, 1)" stroke-width="1.5"></path><path d="M953.95 -110.28L1119.91 -86.66" stroke="rgba(49, 104, 156, 1)" stroke-width="1.5"></path><path d="M953.95 -110.28L1155.82 99.25" stroke="rgba(49, 104, 156, 1)" stroke-width="1.5"></path><path d="M1007.5 38.27L1007.5 38.27" stroke="rgba(49, 104, 156, 1)" stroke-width="1.5"></path><path d="M1007.5 38.27L1155.82 99.25" stroke="rgba(49, 104, 156, 1)" stroke-width="1.5"></path><path d="M1007.5 38.27L1119.91 -86.66" stroke="rgba(49, 104, 156, 1)" stroke-width="1.5"></path><path d="M947.34 205.3L947.34 205.3" stroke="rgba(49, 104, 156, 1)" stroke-width="1.5"></path><path d="M947.34 205.3L952.23 355.52" stroke="rgba(49, 104, 156, 1)" stroke-width="1.5"></path><path d="M947.34 205.3L1100.8 218.34" stroke="rgba(49, 104, 156, 1)" stroke-width="1.5"></path><path d="M947.34 205.3L1007.5 38.27" stroke="rgba(49, 104, 156, 1)" stroke-width="1.5"></path><path d="M952.23 355.52L952.23 355.52" stroke="rgba(49, 104, 156, 1)" stroke-width="1.5"></path><path d="M952.23 355.52L956.59 517.61" stroke="rgba(49, 104, 156, 1)" stroke-width="1.5"></path><path d="M952.23 355.52L1135.47 368.18" stroke="rgba(49, 104, 156, 1)" stroke-width="1.5"></path><path d="M952.23 355.52L1100.8 218.34" stroke="rgba(49, 104, 156, 1)" stroke-width="1.5"></path><path d="M956.59 517.61L956.59 517.61" stroke="rgba(49, 104, 156, 1)" stroke-width="1.5"></path><path d="M956.59 517.61L1011.94 702.44" stroke="rgba(49, 104, 156, 1)" stroke-width="1.5"></path><path d="M956.59 517.61L1153.93 495.81" stroke="rgba(49, 104, 156, 1)" stroke-width="1.5"></path><path d="M1011.94 702.44L1011.94 702.44" stroke="rgba(49, 104, 156, 1)" stroke-width="1.5"></path><path d="M1011.94 702.44L1138.58 689.38" stroke="rgba(49, 104, 156, 1)" stroke-width="1.5"></path><path d="M1119.91 -86.66L1119.91 -86.66" stroke="rgba(49, 104, 156, 1)" stroke-width="1.5"></path><path d="M1119.91 -86.66L1280.21 -109.27" stroke="rgba(49, 104, 156, 1)" stroke-width="1.5"></path><path d="M1119.91 -86.66L1155.82 99.25" stroke="rgba(49, 104, 156, 1)" stroke-width="1.5"></path><path d="M1119.91 -86.66L1243.19 100.09" stroke="rgba(49, 104, 156, 1)" stroke-width="1.5"></path><path d="M1155.82 99.25L1155.82 99.25" stroke="rgba(49, 104, 156, 1)" stroke-width="1.5"></path><path d="M1155.82 99.25L1243.19 100.09" stroke="rgba(49, 104, 156, 1)" stroke-width="1.5"></path><path d="M1155.82 99.25L1100.8 218.34" stroke="rgba(49, 104, 156, 1)" stroke-width="1.5"></path><path d="M1100.8 218.34L1100.8 218.34" stroke="rgba(49, 104, 156, 1)" stroke-width="1.5"></path><path d="M1100.8 218.34L1135.47 368.18" stroke="rgba(49, 104, 156, 1)" stroke-width="1.5"></path><path d="M1135.47 368.18L1135.47 368.18" stroke="rgba(49, 104, 156, 1)" stroke-width="1.5"></path><path d="M1135.47 368.18L1248.29 393.05" stroke="rgba(49, 104, 156, 1)" stroke-width="1.5"></path><path d="M1135.47 368.18L1153.93 495.81" stroke="rgba(49, 104, 156, 1)" stroke-width="1.5"></path><path d="M1153.93 495.81L1153.93 495.81" stroke="rgba(49, 104, 156, 1)" stroke-width="1.5"></path><path d="M1153.93 495.81L1253.21 525.29" stroke="rgba(49, 104, 156, 1)" stroke-width="1.5"></path><path d="M1153.93 495.81L1248.29 393.05" stroke="rgba(49, 104, 156, 1)" stroke-width="1.5"></path><path d="M1138.58 689.38L1138.58 689.38" stroke="rgba(49, 104, 156, 1)" stroke-width="1.5"></path><path d="M1138.58 689.38L1269.9 708.32" stroke="rgba(49, 104, 156, 1)" stroke-width="1.5"></path><path d="M1138.58 689.38L1153.93 495.81" stroke="rgba(49, 104, 156, 1)" stroke-width="1.5"></path><path d="M1138.58 689.38L1253.21 525.29" stroke="rgba(49, 104, 156, 1)" stroke-width="1.5"></path><path d="M1138.58 689.38L956.59 517.61" stroke="rgba(49, 104, 156, 1)" stroke-width="1.5"></path><path d="M1138.58 689.38L1405.21 695.78" stroke="rgba(49, 104, 156, 1)" stroke-width="1.5"></path><path d="M1280.21 -109.27L1280.21 -109.27" stroke="rgba(49, 104, 156, 1)" stroke-width="1.5"></path><path d="M1243.19 100.09L1243.19 100.09" stroke="rgba(49, 104, 156, 1)" stroke-width="1.5"></path><path d="M1243.19 100.09L1300.69 221.29" stroke="rgba(49, 104, 156, 1)" stroke-width="1.5"></path><path d="M1243.19 100.09L1100.8 218.34" stroke="rgba(49, 104, 156, 1)" stroke-width="1.5"></path><path d="M1243.19 100.09L1280.21 -109.27" stroke="rgba(49, 104, 156, 1)" stroke-width="1.5"></path><path d="M1300.69 221.29L1300.69 221.29" stroke="rgba(49, 104, 156, 1)" stroke-width="1.5"></path><path d="M1300.69 221.29L1454.13 219.96" stroke="rgba(49, 104, 156, 1)" stroke-width="1.5"></path><path d="M1300.69 221.29L1248.29 393.05" stroke="rgba(49, 104, 156, 1)" stroke-width="1.5"></path><path d="M1300.69 221.29L1155.82 99.25" stroke="rgba(49, 104, 156, 1)" stroke-width="1.5"></path><path d="M1248.29 393.05L1248.29 393.05" stroke="rgba(49, 104, 156, 1)" stroke-width="1.5"></path><path d="M1248.29 393.05L1253.21 525.29" stroke="rgba(49, 104, 156, 1)" stroke-width="1.5"></path><path d="M1253.21 525.29L1253.21 525.29" stroke="rgba(49, 104, 156, 1)" stroke-width="1.5"></path><path d="M1253.21 525.29L1406.6 542.1" stroke="rgba(49, 104, 156, 1)" stroke-width="1.5"></path><path d="M1269.9 708.32L1269.9 708.32" stroke="rgba(49, 104, 156, 1)" stroke-width="1.5"></path><path d="M1269.9 708.32L1405.21 695.78" stroke="rgba(49, 104, 156, 1)" stroke-width="1.5"></path><path d="M1269.9 708.32L1253.21 525.29" stroke="rgba(49, 104, 156, 1)" stroke-width="1.5"></path><path d="M1456.5 -38.05L1456.5 -38.05" stroke="rgba(49, 104, 156, 1)" stroke-width="1.5"></path><path d="M1456.5 -38.05L1540.86 -78" stroke="rgba(49, 104, 156, 1)" stroke-width="1.5"></path><path d="M1456.5 -38.05L1596.17 42.23" stroke="rgba(49, 104, 156, 1)" stroke-width="1.5"></path><path d="M1456.5 -38.05L1280.21 -109.27" stroke="rgba(49, 104, 156, 1)" stroke-width="1.5"></path><path d="M1456.5 -38.05L1243.19 100.09" stroke="rgba(49, 104, 156, 1)" stroke-width="1.5"></path><path d="M1456.5 -38.05L1454.13 219.96" stroke="rgba(49, 104, 156, 1)" stroke-width="1.5"></path><path d="M1454.13 219.96L1454.13 219.96" stroke="rgba(49, 104, 156, 1)" stroke-width="1.5"></path><path d="M1454.13 219.96L1602.06 211.21" stroke="rgba(49, 104, 156, 1)" stroke-width="1.5"></path><path d="M1448.49 407.33L1448.49 407.33" stroke="rgba(49, 104, 156, 1)" stroke-width="1.5"></path><path d="M1448.49 407.33L1558.95 374.42" stroke="rgba(49, 104, 156, 1)" stroke-width="1.5"></path><path d="M1448.49 407.33L1406.6 542.1" stroke="rgba(49, 104, 156, 1)" stroke-width="1.5"></path><path d="M1448.49 407.33L1581.98 494.51" stroke="rgba(49, 104, 156, 1)" stroke-width="1.5"></path><path d="M1448.49 407.33L1454.13 219.96" stroke="rgba(49, 104, 156, 1)" stroke-width="1.5"></path><path d="M1406.6 542.1L1406.6 542.1" stroke="rgba(49, 104, 156, 1)" stroke-width="1.5"></path><path d="M1406.6 542.1L1405.21 695.78" stroke="rgba(49, 104, 156, 1)" stroke-width="1.5"></path><path d="M1406.6 542.1L1581.98 494.51" stroke="rgba(49, 104, 156, 1)" stroke-width="1.5"></path><path d="M1406.6 542.1L1555.81 681.76" stroke="rgba(49, 104, 156, 1)" stroke-width="1.5"></path><path d="M1406.6 542.1L1269.9 708.32" stroke="rgba(49, 104, 156, 1)" stroke-width="1.5"></path><path d="M1405.21 695.78L1405.21 695.78" stroke="rgba(49, 104, 156, 1)" stroke-width="1.5"></path><path d="M1405.21 695.78L1555.81 681.76" stroke="rgba(49, 104, 156, 1)" stroke-width="1.5"></path><path d="M1405.21 695.78L1253.21 525.29" stroke="rgba(49, 104, 156, 1)" stroke-width="1.5"></path><path d="M1540.86 -78L1540.86 -78" stroke="rgba(49, 104, 156, 1)" stroke-width="1.5"></path><path d="M1540.86 -78L1596.17 42.23" stroke="rgba(49, 104, 156, 1)" stroke-width="1.5"></path><path d="M1540.86 -78L1280.21 -109.27" stroke="rgba(49, 104, 156, 1)" stroke-width="1.5"></path><path d="M1540.86 -78L1602.06 211.21" stroke="rgba(49, 104, 156, 1)" stroke-width="1.5"></path><path d="M1596.17 42.23L1596.17 42.23" stroke="rgba(49, 104, 156, 1)" stroke-width="1.5"></path><path d="M1596.17 42.23L1602.06 211.21" stroke="rgba(49, 104, 156, 1)" stroke-width="1.5"></path><path d="M1596.17 42.23L1454.13 219.96" stroke="rgba(49, 104, 156, 1)" stroke-width="1.5"></path><path d="M1596.17 42.23L1558.95 374.42" stroke="rgba(49, 104, 156, 1)" stroke-width="1.5"></path><path d="M1602.06 211.21L1602.06 211.21" stroke="rgba(49, 104, 156, 1)" stroke-width="1.5"></path><path d="M1602.06 211.21L1558.95 374.42" stroke="rgba(49, 104, 156, 1)" stroke-width="1.5"></path><path d="M1558.95 374.42L1558.95 374.42" stroke="rgba(49, 104, 156, 1)" stroke-width="1.5"></path><path d="M1581.98 494.51L1581.98 494.51" stroke="rgba(49, 104, 156, 1)" stroke-width="1.5"></path><path d="M1581.98 494.51L1558.95 374.42" stroke="rgba(49, 104, 156, 1)" stroke-width="1.5"></path><path d="M1555.81 681.76L1555.81 681.76" stroke="rgba(49, 104, 156, 1)" stroke-width="1.5"></path><path d="M1555.81 681.76L1581.98 494.51" stroke="rgba(49, 104, 156, 1)" stroke-width="1.5"></path><path d="M1555.81 681.76L1269.9 708.32" stroke="rgba(49, 104, 156, 1)" stroke-width="1.5"></path><path d="M1555.81 681.76L1448.49 407.33" stroke="rgba(49, 104, 156, 1)" stroke-width="1.5"></path><circle r="5" cx="-80.78" cy="684.25" fill="rgba(49, 104, 156, 1)"></circle><circle r="5" cx="108.64" cy="338.41" fill="rgba(49, 104, 156, 1)"></circle><circle r="5" cx="56.14" cy="498.48" fill="rgba(49, 104, 156, 1)"></circle><circle r="5" cx="74.93" cy="684.18" fill="rgba(49, 104, 156, 1)"></circle><circle r="5" cx="210.99" cy="392.53" fill="rgba(49, 104, 156, 1)"></circle><circle r="5" cx="262.15" cy="562.06" fill="rgba(49, 104, 156, 1)"></circle><circle r="5" cx="221.23" cy="657.54" fill="rgba(49, 104, 156, 1)"></circle><circle r="5" cx="381.71" cy="370.76" fill="rgba(49, 104, 156, 1)"></circle><circle r="5" cx="385.07" cy="543.47" fill="rgba(49, 104, 156, 1)"></circle><circle r="5" cx="352.22" cy="673.52" fill="rgba(49, 104, 156, 1)"></circle><circle r="5" cx="531.34" cy="400.86" fill="rgba(49, 104, 156, 1)"></circle><circle r="5" cx="515.82" cy="517" fill="rgba(49, 104, 156, 1)"></circle><circle r="5" cx="560.9" cy="646.58" fill="rgba(49, 104, 156, 1)"></circle><circle r="5" cx="710.5" cy="258.5" fill="rgba(49, 104, 156, 1)"></circle><circle r="5" cx="688.81" cy="395.95" fill="rgba(49, 104, 156, 1)"></circle><circle r="5" cx="675.46" cy="523.39" fill="rgba(49, 104, 156, 1)"></circle><circle r="5" cx="663.4" cy="683.7" fill="rgba(49, 104, 156, 1)"></circle><circle r="5" cx="844.73" cy="213.3" fill="rgba(49, 104, 156, 1)"></circle><circle r="5" cx="791.07" cy="535.72" fill="rgba(49, 104, 156, 1)"></circle><circle r="5" cx="791.32" cy="706.92" fill="rgba(49, 104, 156, 1)"></circle><circle r="5" cx="953.95" cy="-110.28" fill="rgba(49, 104, 156, 1)"></circle><circle r="5" cx="1007.5" cy="38.27" fill="rgba(49, 104, 156, 1)"></circle><circle r="5" cx="947.34" cy="205.3" fill="rgba(49, 104, 156, 1)"></circle><circle r="5" cx="952.23" cy="355.52" fill="rgba(49, 104, 156, 1)"></circle><circle r="5" cx="956.59" cy="517.61" fill="rgba(49, 104, 156, 1)"></circle><circle r="5" cx="1011.94" cy="702.44" fill="rgba(49, 104, 156, 1)"></circle><circle r="5" cx="1119.91" cy="-86.66" fill="rgba(49, 104, 156, 1)"></circle><circle r="5" cx="1155.82" cy="99.25" fill="rgba(49, 104, 156, 1)"></circle><circle r="5" cx="1100.8" cy="218.34" fill="rgba(49, 104, 156, 1)"></circle><circle r="5" cx="1135.47" cy="368.18" fill="rgba(49, 104, 156, 1)"></circle><circle r="5" cx="1153.93" cy="495.81" fill="rgba(49, 104, 156, 1)"></circle><circle r="5" cx="1138.58" cy="689.38" fill="rgba(49, 104, 156, 1)"></circle><circle r="5" cx="1280.21" cy="-109.27" fill="rgba(49, 104, 156, 1)"></circle><circle r="5" cx="1243.19" cy="100.09" fill="rgba(49, 104, 156, 1)"></circle><circle r="5" cx="1300.69" cy="221.29" fill="rgba(49, 104, 156, 1)"></circle><circle r="5" cx="1248.29" cy="393.05" fill="rgba(49, 104, 156, 1)"></circle><circle r="5" cx="1253.21" cy="525.29" fill="rgba(49, 104, 156, 1)"></circle><circle r="5" cx="1269.9" cy="708.32" fill="rgba(49, 104, 156, 1)"></circle><circle r="5" cx="1456.5" cy="-38.05" fill="rgba(49, 104, 156, 1)"></circle><circle r="5" cx="1454.13" cy="219.96" fill="rgba(49, 104, 156, 1)"></circle><circle r="5" cx="1448.49" cy="407.33" fill="rgba(49, 104, 156, 1)"></circle><circle r="5" cx="1406.6" cy="542.1" fill="rgba(49, 104, 156, 1)"></circle><circle r="5" cx="1405.21" cy="695.78" fill="rgba(49, 104, 156, 1)"></circle><circle r="5" cx="1540.86" cy="-78" fill="rgba(49, 104, 156, 1)"></circle><circle r="5" cx="1596.17" cy="42.23" fill="rgba(49, 104, 156, 1)"></circle><circle r="5" cx="1602.06" cy="211.21" fill="rgba(49, 104, 156, 1)"></circle><circle r="5" cx="1558.95" cy="374.42" fill="rgba(49, 104, 156, 1)"></circle><circle r="5" cx="1581.98" cy="494.51" fill="rgba(49, 104, 156, 1)"></circle><circle r="5" cx="1555.81" cy="681.76" fill="rgba(49, 104, 156, 1)"></circle><path d="M-102.87 707.06L-102.87 707.06" stroke="hsl(240, 65.4%, 81.3%)" stroke-width="1.5"></path><path d="M-102.87 707.06L-53.26 536.01" stroke="hsl(240, 65.4%, 81.3%)" stroke-width="1.5"></path><path d="M-102.87 707.06L82.05 711.03" stroke="hsl(240, 65.4%, 81.3%)" stroke-width="1.5"></path><path d="M-102.87 707.06L53.95 534.37" stroke="hsl(240, 65.4%, 81.3%)" stroke-width="1.5"></path><path d="M-102.87 707.06L253.44 640.79" stroke="hsl(240, 65.4%, 81.3%)" stroke-width="1.5"></path><path d="M-102.87 707.06L249.95 495.1" stroke="hsl(240, 65.4%, 81.3%)" stroke-width="1.5"></path><path d="M-102.87 707.06L360.28 687.05" stroke="hsl(240, 65.4%, 81.3%)" stroke-width="1.5"></path><path d="M82.05 711.03L82.05 711.03" stroke="hsl(240, 65.4%, 81.3%)" stroke-width="1.5"></path><path d="M82.05 711.03L53.95 534.37" stroke="hsl(240, 65.4%, 81.3%)" stroke-width="1.5"></path><path d="M82.05 711.03L253.44 640.79" stroke="hsl(240, 65.4%, 81.3%)" stroke-width="1.5"></path><path d="M82.05 711.03L-53.26 536.01" stroke="hsl(240, 65.4%, 81.3%)" stroke-width="1.5"></path><path d="M363.15 490.35L363.15 490.35" stroke="hsl(240, 65.4%, 81.3%)" stroke-width="1.5"></path><path d="M363.15 490.35L249.95 495.1" stroke="hsl(240, 65.4%, 81.3%)" stroke-width="1.5"></path><path d="M363.15 490.35L253.44 640.79" stroke="hsl(240, 65.4%, 81.3%)" stroke-width="1.5"></path><path d="M363.15 490.35L360.28 687.05" stroke="hsl(240, 65.4%, 81.3%)" stroke-width="1.5"></path><path d="M363.15 490.35L557.94 561.45" stroke="hsl(240, 65.4%, 81.3%)" stroke-width="1.5"></path><path d="M363.15 490.35L517.2 694.62" stroke="hsl(240, 65.4%, 81.3%)" stroke-width="1.5"></path><path d="M363.15 490.35L640.21 508.1" stroke="hsl(240, 65.4%, 81.3%)" stroke-width="1.5"></path><path d="M360.28 687.05L360.28 687.05" stroke="hsl(240, 65.4%, 81.3%)" stroke-width="1.5"></path><path d="M360.28 687.05L253.44 640.79" stroke="hsl(240, 65.4%, 81.3%)" stroke-width="1.5"></path><path d="M360.28 687.05L517.2 694.62" stroke="hsl(240, 65.4%, 81.3%)" stroke-width="1.5"></path><path d="M679.52 646.45L679.52 646.45" stroke="hsl(240, 65.4%, 81.3%)" stroke-width="1.5"></path><path d="M679.52 646.45L640.21 508.1" stroke="hsl(240, 65.4%, 81.3%)" stroke-width="1.5"></path><path d="M679.52 646.45L557.94 561.45" stroke="hsl(240, 65.4%, 81.3%)" stroke-width="1.5"></path><path d="M679.52 646.45L517.2 694.62" stroke="hsl(240, 65.4%, 81.3%)" stroke-width="1.5"></path><path d="M853.81 389.49L853.81 389.49" stroke="hsl(240, 65.4%, 81.3%)" stroke-width="1.5"></path><path d="M853.81 389.49L815.18 491.44" stroke="hsl(240, 65.4%, 81.3%)" stroke-width="1.5"></path><path d="M853.81 389.49L978.48 407.75" stroke="hsl(240, 65.4%, 81.3%)" stroke-width="1.5"></path><path d="M853.81 389.49L978.81 521.52" stroke="hsl(240, 65.4%, 81.3%)" stroke-width="1.5"></path><path d="M853.81 389.49L640.21 508.1" stroke="hsl(240, 65.4%, 81.3%)" stroke-width="1.5"></path><path d="M815.18 491.44L815.18 491.44" stroke="hsl(240, 65.4%, 81.3%)" stroke-width="1.5"></path><path d="M815.18 491.44L978.81 521.52" stroke="hsl(240, 65.4%, 81.3%)" stroke-width="1.5"></path><path d="M815.18 491.44L640.21 508.1" stroke="hsl(240, 65.4%, 81.3%)" stroke-width="1.5"></path><path d="M815.18 491.44L978.48 407.75" stroke="hsl(240, 65.4%, 81.3%)" stroke-width="1.5"></path><path d="M815.18 491.44L679.52 646.45" stroke="hsl(240, 65.4%, 81.3%)" stroke-width="1.5"></path><path d="M978.48 407.75L978.48 407.75" stroke="hsl(240, 65.4%, 81.3%)" stroke-width="1.5"></path><path d="M978.48 407.75L978.81 521.52" stroke="hsl(240, 65.4%, 81.3%)" stroke-width="1.5"></path><path d="M978.48 407.75L1124.25 353.93" stroke="hsl(240, 65.4%, 81.3%)" stroke-width="1.5"></path><path d="M978.48 407.75L1127.85 492.12" stroke="hsl(240, 65.4%, 81.3%)" stroke-width="1.5"></path><path d="M978.48 407.75L1012.43 687.39" stroke="hsl(240, 65.4%, 81.3%)" stroke-width="1.5"></path><path d="M1110.8 672.98L1110.8 672.98" stroke="hsl(240, 65.4%, 81.3%)" stroke-width="1.5"></path><path d="M1110.8 672.98L1012.43 687.39" stroke="hsl(240, 65.4%, 81.3%)" stroke-width="1.5"></path><path d="M1110.8 672.98L1268.72 687.71" stroke="hsl(240, 65.4%, 81.3%)" stroke-width="1.5"></path><path d="M1110.8 672.98L1127.85 492.12" stroke="hsl(240, 65.4%, 81.3%)" stroke-width="1.5"></path><path d="M1110.8 672.98L978.81 521.52" stroke="hsl(240, 65.4%, 81.3%)" stroke-width="1.5"></path><path d="M1110.8 672.98L1270.44 495.6" stroke="hsl(240, 65.4%, 81.3%)" stroke-width="1.5"></path><path d="M1110.8 672.98L846.55 696.53" stroke="hsl(240, 65.4%, 81.3%)" stroke-width="1.5"></path><path d="M1262.12 341.32L1262.12 341.32" stroke="hsl(240, 65.4%, 81.3%)" stroke-width="1.5"></path><path d="M1262.12 341.32L1259 205.44" stroke="hsl(240, 65.4%, 81.3%)" stroke-width="1.5"></path><path d="M1262.12 341.32L1124.25 353.93" stroke="hsl(240, 65.4%, 81.3%)" stroke-width="1.5"></path><path d="M1262.12 341.32L1270.44 495.6" stroke="hsl(240, 65.4%, 81.3%)" stroke-width="1.5"></path><path d="M1262.12 341.32L1396.17 242.22" stroke="hsl(240, 65.4%, 81.3%)" stroke-width="1.5"></path><path d="M1262.12 341.32L1127.85 492.12" stroke="hsl(240, 65.4%, 81.3%)" stroke-width="1.5"></path><path d="M1594.15 88.74L1594.15 88.74" stroke="hsl(240, 65.4%, 81.3%)" stroke-width="1.5"></path><path d="M1594.15 88.74L1608.65 203.34" stroke="hsl(240, 65.4%, 81.3%)" stroke-width="1.5"></path><path d="M1594.15 88.74L1554.72 -80.79" stroke="hsl(240, 65.4%, 81.3%)" stroke-width="1.5"></path><path d="M1594.15 88.74L1418.99 91.51" stroke="hsl(240, 65.4%, 81.3%)" stroke-width="1.5"></path><path d="M1591.57 383.81L1591.57 383.81" stroke="hsl(240, 65.4%, 81.3%)" stroke-width="1.5"></path><path d="M1591.57 383.81L1567.04 493.21" stroke="hsl(240, 65.4%, 81.3%)" stroke-width="1.5"></path><path d="M1591.57 383.81L1608.65 203.34" stroke="hsl(240, 65.4%, 81.3%)" stroke-width="1.5"></path><path d="M1591.57 383.81L1399.41 505.96" stroke="hsl(240, 65.4%, 81.3%)" stroke-width="1.5"></path><path d="M1591.57 383.81L1396.17 242.22" stroke="hsl(240, 65.4%, 81.3%)" stroke-width="1.5"></path><path d="M1591.57 383.81L1597.81 662.01" stroke="hsl(240, 65.4%, 81.3%)" stroke-width="1.5"></path><path d="M1597.81 662.01L1597.81 662.01" stroke="hsl(240, 65.4%, 81.3%)" stroke-width="1.5"></path><path d="M1597.81 662.01L1455.24 676.18" stroke="hsl(240, 65.4%, 81.3%)" stroke-width="1.5"></path><path d="M1597.81 662.01L1567.04 493.21" stroke="hsl(240, 65.4%, 81.3%)" stroke-width="1.5"></path><path d="M1597.81 662.01L1399.41 505.96" stroke="hsl(240, 65.4%, 81.3%)" stroke-width="1.5"></path><path d="M1597.81 662.01L1268.72 687.71" stroke="hsl(240, 65.4%, 81.3%)" stroke-width="1.5"></path><path d="M1597.81 662.01L1270.44 495.6" stroke="hsl(240, 65.4%, 81.3%)" stroke-width="1.5"></path><path d="M-53.26 536.01L-53.26 536.01" stroke="hsl(240, 65.4%, 81.3%)" stroke-width="1.5"></path><path d="M-53.26 536.01L53.95 534.37" stroke="hsl(240, 65.4%, 81.3%)" stroke-width="1.5"></path><path d="M53.95 534.37L53.95 534.37" stroke="hsl(240, 65.4%, 81.3%)" stroke-width="1.5"></path><path d="M249.95 495.1L249.95 495.1" stroke="hsl(240, 65.4%, 81.3%)" stroke-width="1.5"></path><path d="M249.95 495.1L253.44 640.79" stroke="hsl(240, 65.4%, 81.3%)" stroke-width="1.5"></path><path d="M253.44 640.79L253.44 640.79" stroke="hsl(240, 65.4%, 81.3%)" stroke-width="1.5"></path><path d="M557.94 561.45L557.94 561.45" stroke="hsl(240, 65.4%, 81.3%)" stroke-width="1.5"></path><path d="M557.94 561.45L640.21 508.1" stroke="hsl(240, 65.4%, 81.3%)" stroke-width="1.5"></path><path d="M557.94 561.45L517.2 694.62" stroke="hsl(240, 65.4%, 81.3%)" stroke-width="1.5"></path><path d="M557.94 561.45L360.28 687.05" stroke="hsl(240, 65.4%, 81.3%)" stroke-width="1.5"></path><path d="M517.2 694.62L517.2 694.62" stroke="hsl(240, 65.4%, 81.3%)" stroke-width="1.5"></path><path d="M517.2 694.62L640.21 508.1" stroke="hsl(240, 65.4%, 81.3%)" stroke-width="1.5"></path><path d="M640.21 508.1L640.21 508.1" stroke="hsl(240, 65.4%, 81.3%)" stroke-width="1.5"></path><path d="M846.55 696.53L846.55 696.53" stroke="hsl(240, 65.4%, 81.3%)" stroke-width="1.5"></path><path d="M846.55 696.53L1012.43 687.39" stroke="hsl(240, 65.4%, 81.3%)" stroke-width="1.5"></path><path d="M846.55 696.53L679.52 646.45" stroke="hsl(240, 65.4%, 81.3%)" stroke-width="1.5"></path><path d="M846.55 696.53L815.18 491.44" stroke="hsl(240, 65.4%, 81.3%)" stroke-width="1.5"></path><path d="M978.81 521.52L978.81 521.52" stroke="hsl(240, 65.4%, 81.3%)" stroke-width="1.5"></path><path d="M978.81 521.52L1127.85 492.12" stroke="hsl(240, 65.4%, 81.3%)" stroke-width="1.5"></path><path d="M1012.43 687.39L1012.43 687.39" stroke="hsl(240, 65.4%, 81.3%)" stroke-width="1.5"></path><path d="M1162.48 -48.65L1162.48 -48.65" stroke="hsl(240, 65.4%, 81.3%)" stroke-width="1.5"></path><path d="M1162.48 -48.65L1258.67 -90.88" stroke="hsl(240, 65.4%, 81.3%)" stroke-width="1.5"></path><path d="M1162.48 -48.65L1160.99 59.93" stroke="hsl(240, 65.4%, 81.3%)" stroke-width="1.5"></path><path d="M1162.48 -48.65L1269.77 48.16" stroke="hsl(240, 65.4%, 81.3%)" stroke-width="1.5"></path><path d="M1162.48 -48.65L1259 205.44" stroke="hsl(240, 65.4%, 81.3%)" stroke-width="1.5"></path><path d="M1162.48 -48.65L1431.65 -95.2" stroke="hsl(240, 65.4%, 81.3%)" stroke-width="1.5"></path><path d="M1160.99 59.93L1160.99 59.93" stroke="hsl(240, 65.4%, 81.3%)" stroke-width="1.5"></path><path d="M1160.99 59.93L1269.77 48.16" stroke="hsl(240, 65.4%, 81.3%)" stroke-width="1.5"></path><path d="M1160.99 59.93L1259 205.44" stroke="hsl(240, 65.4%, 81.3%)" stroke-width="1.5"></path><path d="M1160.99 59.93L1258.67 -90.88" stroke="hsl(240, 65.4%, 81.3%)" stroke-width="1.5"></path><path d="M1160.99 59.93L1418.99 91.51" stroke="hsl(240, 65.4%, 81.3%)" stroke-width="1.5"></path><path d="M1160.99 59.93L1124.25 353.93" stroke="hsl(240, 65.4%, 81.3%)" stroke-width="1.5"></path><path d="M1124.25 353.93L1124.25 353.93" stroke="hsl(240, 65.4%, 81.3%)" stroke-width="1.5"></path><path d="M1124.25 353.93L1127.85 492.12" stroke="hsl(240, 65.4%, 81.3%)" stroke-width="1.5"></path><path d="M1124.25 353.93L1259 205.44" stroke="hsl(240, 65.4%, 81.3%)" stroke-width="1.5"></path><path d="M1124.25 353.93L1270.44 495.6" stroke="hsl(240, 65.4%, 81.3%)" stroke-width="1.5"></path><path d="M1127.85 492.12L1127.85 492.12" stroke="hsl(240, 65.4%, 81.3%)" stroke-width="1.5"></path><path d="M1127.85 492.12L1270.44 495.6" stroke="hsl(240, 65.4%, 81.3%)" stroke-width="1.5"></path><path d="M1258.67 -90.88L1258.67 -90.88" stroke="hsl(240, 65.4%, 81.3%)" stroke-width="1.5"></path><path d="M1258.67 -90.88L1269.77 48.16" stroke="hsl(240, 65.4%, 81.3%)" stroke-width="1.5"></path><path d="M1269.77 48.16L1269.77 48.16" stroke="hsl(240, 65.4%, 81.3%)" stroke-width="1.5"></path><path d="M1269.77 48.16L1418.99 91.51" stroke="hsl(240, 65.4%, 81.3%)" stroke-width="1.5"></path><path d="M1269.77 48.16L1259 205.44" stroke="hsl(240, 65.4%, 81.3%)" stroke-width="1.5"></path><path d="M1259 205.44L1259 205.44" stroke="hsl(240, 65.4%, 81.3%)" stroke-width="1.5"></path><path d="M1259 205.44L1396.17 242.22" stroke="hsl(240, 65.4%, 81.3%)" stroke-width="1.5"></path><path d="M1270.44 495.6L1270.44 495.6" stroke="hsl(240, 65.4%, 81.3%)" stroke-width="1.5"></path><path d="M1270.44 495.6L1399.41 505.96" stroke="hsl(240, 65.4%, 81.3%)" stroke-width="1.5"></path><path d="M1268.72 687.71L1268.72 687.71" stroke="hsl(240, 65.4%, 81.3%)" stroke-width="1.5"></path><path d="M1268.72 687.71L1455.24 676.18" stroke="hsl(240, 65.4%, 81.3%)" stroke-width="1.5"></path><path d="M1268.72 687.71L1270.44 495.6" stroke="hsl(240, 65.4%, 81.3%)" stroke-width="1.5"></path><path d="M1268.72 687.71L1399.41 505.96" stroke="hsl(240, 65.4%, 81.3%)" stroke-width="1.5"></path><path d="M1268.72 687.71L1127.85 492.12" stroke="hsl(240, 65.4%, 81.3%)" stroke-width="1.5"></path><path d="M1268.72 687.71L1012.43 687.39" stroke="hsl(240, 65.4%, 81.3%)" stroke-width="1.5"></path><path d="M1431.65 -95.2L1431.65 -95.2" stroke="hsl(240, 65.4%, 81.3%)" stroke-width="1.5"></path><path d="M1431.65 -95.2L1554.72 -80.79" stroke="hsl(240, 65.4%, 81.3%)" stroke-width="1.5"></path><path d="M1431.65 -95.2L1258.67 -90.88" stroke="hsl(240, 65.4%, 81.3%)" stroke-width="1.5"></path><path d="M1431.65 -95.2L1418.99 91.51" stroke="hsl(240, 65.4%, 81.3%)" stroke-width="1.5"></path><path d="M1431.65 -95.2L1269.77 48.16" stroke="hsl(240, 65.4%, 81.3%)" stroke-width="1.5"></path><path d="M1418.99 91.51L1418.99 91.51" stroke="hsl(240, 65.4%, 81.3%)" stroke-width="1.5"></path><path d="M1418.99 91.51L1396.17 242.22" stroke="hsl(240, 65.4%, 81.3%)" stroke-width="1.5"></path><path d="M1396.17 242.22L1396.17 242.22" stroke="hsl(240, 65.4%, 81.3%)" stroke-width="1.5"></path><path d="M1399.41 505.96L1399.41 505.96" stroke="hsl(240, 65.4%, 81.3%)" stroke-width="1.5"></path><path d="M1399.41 505.96L1567.04 493.21" stroke="hsl(240, 65.4%, 81.3%)" stroke-width="1.5"></path><path d="M1399.41 505.96L1455.24 676.18" stroke="hsl(240, 65.4%, 81.3%)" stroke-width="1.5"></path><path d="M1455.24 676.18L1455.24 676.18" stroke="hsl(240, 65.4%, 81.3%)" stroke-width="1.5"></path><path d="M1554.72 -80.79L1554.72 -80.79" stroke="hsl(240, 65.4%, 81.3%)" stroke-width="1.5"></path><path d="M1554.72 -80.79L1418.99 91.51" stroke="hsl(240, 65.4%, 81.3%)" stroke-width="1.5"></path><path d="M1554.72 -80.79L1608.65 203.34" stroke="hsl(240, 65.4%, 81.3%)" stroke-width="1.5"></path><path d="M1554.72 -80.79L1258.67 -90.88" stroke="hsl(240, 65.4%, 81.3%)" stroke-width="1.5"></path><path d="M1608.65 203.34L1608.65 203.34" stroke="hsl(240, 65.4%, 81.3%)" stroke-width="1.5"></path><path d="M1567.04 493.21L1567.04 493.21" stroke="hsl(240, 65.4%, 81.3%)" stroke-width="1.5"></path><circle r="25" cx="-102.87" cy="707.06" fill="url(#SvgjsRadialGradient1038)"></circle><circle r="25" cx="82.05" cy="711.03" fill="url(#SvgjsRadialGradient1038)"></circle><circle r="25" cx="363.15" cy="490.35" fill="url(#SvgjsRadialGradient1038)"></circle><circle r="25" cx="360.28" cy="687.05" fill="url(#SvgjsRadialGradient1038)"></circle><circle r="25" cx="679.52" cy="646.45" fill="url(#SvgjsRadialGradient1038)"></circle><circle r="25" cx="853.81" cy="389.49" fill="url(#SvgjsRadialGradient1038)"></circle><circle r="25" cx="815.18" cy="491.44" fill="url(#SvgjsRadialGradient1038)"></circle><circle r="25" cx="978.48" cy="407.75" fill="url(#SvgjsRadialGradient1038)"></circle><circle r="25" cx="1110.8" cy="672.98" fill="url(#SvgjsRadialGradient1038)"></circle><circle r="25" cx="1262.12" cy="341.32" fill="url(#SvgjsRadialGradient1038)"></circle><circle r="25" cx="1594.15" cy="88.74" fill="url(#SvgjsRadialGradient1038)"></circle><circle r="25" cx="1591.57" cy="383.81" fill="url(#SvgjsRadialGradient1038)"></circle><circle r="25" cx="1597.81" cy="662.01" fill="url(#SvgjsRadialGradient1038)"></circle><circle r="5" cx="-53.26" cy="536.01" fill="#b0b0ef"></circle><circle r="5" cx="53.95" cy="534.37" fill="#b0b0ef"></circle><circle r="5" cx="249.95" cy="495.1" fill="#b0b0ef"></circle><circle r="5" cx="253.44" cy="640.79" fill="#b0b0ef"></circle><circle r="5" cx="557.94" cy="561.45" fill="#b0b0ef"></circle><circle r="5" cx="517.2" cy="694.62" fill="#b0b0ef"></circle><circle r="5" cx="640.21" cy="508.1" fill="#b0b0ef"></circle><circle r="5" cx="846.55" cy="696.53" fill="#b0b0ef"></circle><circle r="5" cx="978.81" cy="521.52" fill="#b0b0ef"></circle><circle r="5" cx="1012.43" cy="687.39" fill="#b0b0ef"></circle><circle r="5" cx="1162.48" cy="-48.65" fill="#b0b0ef"></circle><circle r="5" cx="1160.99" cy="59.93" fill="#b0b0ef"></circle><circle r="5" cx="1124.25" cy="353.93" fill="#b0b0ef"></circle><circle r="5" cx="1127.85" cy="492.12" fill="#b0b0ef"></circle><circle r="5" cx="1258.67" cy="-90.88" fill="#b0b0ef"></circle><circle r="5" cx="1269.77" cy="48.16" fill="#b0b0ef"></circle><circle r="5" cx="1259" cy="205.44" fill="#b0b0ef"></circle><circle r="5" cx="1270.44" cy="495.6" fill="#b0b0ef"></circle><circle r="5" cx="1268.72" cy="687.71" fill="#b0b0ef"></circle><circle r="5" cx="1431.65" cy="-95.2" fill="#b0b0ef"></circle><circle r="5" cx="1418.99" cy="91.51" fill="#b0b0ef"></circle><circle r="5" cx="1396.17" cy="242.22" fill="#b0b0ef"></circle><circle r="5" cx="1399.41" cy="505.96" fill="#b0b0ef"></circle><circle r="5" cx="1455.24" cy="676.18" fill="#b0b0ef"></circle><circle r="5" cx="1554.72" cy="-80.79" fill="#b0b0ef"></circle><circle r="5" cx="1608.65" cy="203.34" fill="#b0b0ef"></circle><circle r="5" cx="1567.04" cy="493.21" fill="#b0b0ef"></circle></g><defs><mask id="SvgjsMask1037"><rect width="1440" height="560" fill="#ffffff"></rect></mask><radialGradient id="SvgjsRadialGradient1038"><stop stop-color="#ffffff" offset="0.1"></stop><stop stop-color="rgba(97, 97, 222, 1)" offset="0.2"></stop><stop stop-color="rgba(97, 97, 222, 0)" offset="1"></stop></radialGradient></defs></svg>