<svg xmlns="http://www.w3.org/2000/svg" version="1.1" xmlns:xlink="http://www.w3.org/1999/xlink" xmlns:svgjs="http://svgjs.com/svgjs" width="1150" height="200" preserveAspectRatio="none" viewBox="0 0 1150 200"><g mask="url(&quot;#SvgjsMask1061&quot;)" fill="none"><path d="M 0,21 C 46,35.6 138,90.8 230,94 C 322,97.2 368,40.8 460,37 C 552,33.2 598,80.8 690,75 C 782,69.2 828,10.8 920,8 C 1012,5.2 1104,50.4 1150,61L1150 200L0 200z" fill="rgba(0, 160, 29, 1)"></path><path d="M 0,170 C 28.8,156.2 86.4,101.4 144,101 C 201.6,100.6 230.4,166.2 288,168 C 345.6,169.8 374.4,112.4 432,110 C 489.6,107.6 518.4,154.2 576,156 C 633.6,157.8 662.4,118.6 720,119 C 777.6,119.4 806.4,157.2 864,158 C 921.6,158.8 950.8,120.2 1008,123 C 1065.2,125.8 1121.6,162.2 1150,172L1150 200L0 200z" fill="rgba(49, 104, 156, 1)"></path></g><defs><mask id="SvgjsMask1061"><rect width="1150" height="200" fill="#ffffff"></rect></mask></defs></svg>